<?xml version="1.0" standalone="no"?>
<!DOCTYPE svg PUBLIC "-//W3C//DTD SVG 20010904//EN"
 "http://www.w3.org/TR/2001/REC-SVG-20010904/DTD/svg10.dtd">
<svg version="1.0" xmlns="http://www.w3.org/2000/svg"
 width="196.000000pt" height="196.000000pt" viewBox="0 0 196.000000 196.000000"
 preserveAspectRatio="xMidYMid meet">

<g transform="translate(0.000000,196.000000) scale(0.100000,-0.100000)"
fill="#000000" stroke="none">
<path d="M846 1950 c-398 -63 -711 -342 -812 -725 -23 -86 -27 -120 -27 -245
0 -125 4 -159 27 -245 91 -343 358 -610 701 -701 86 -23 120 -27 245 -27 125
0 159 4 245 27 343 91 610 358 701 701 23 86 27 120 27 245 0 125 -4 159 -27
245 -91 343 -362 614 -701 700 -113 29 -282 40 -379 25z m299 -409 c80 -31
156 -107 176 -176 21 -75 17 -200 -8 -256 -26 -59 -84 -117 -148 -149 -28 -14
-52 -26 -54 -27 -3 -2 207 -357 302 -511 7 -10 -7 -12 -74 -10 l-83 3 -136
235 -137 235 -122 3 -121 3 0 -241 0 -240 -70 0 -70 0 0 581 0 581 243 -4
c225 -3 246 -5 302 -27z"/>
<path d="M740 1230 l0 -220 114 0 c62 0 137 5 167 10 115 22 172 93 173 215 1
84 -22 138 -73 172 -53 35 -95 43 -243 43 l-138 0 0 -220z"/>
</g>
</svg>
