<?xml version="1.0" standalone="no"?>
<!DOCTYPE svg PUBLIC "-//W3C//DTD SVG 20010904//EN"
 "http://www.w3.org/TR/2001/REC-SVG-20010904/DTD/svg10.dtd">
<svg version="1.0" xmlns="http://www.w3.org/2000/svg"
 width="700.000000pt" height="700.000000pt" viewBox="0 0 700.000000 700.000000"
 preserveAspectRatio="xMidYMid meet">
<metadata>
Created by potrace 1.14, written by Peter Selinger 2001-2017
</metadata>
<g transform="translate(0.000000,700.000000) scale(0.100000,-0.100000)"
fill="#000000" stroke="none">
<path d="M3218 6985 c-1 -1 -41 -5 -88 -9 -47 -3 -145 -18 -219 -32 -825 -156
-1547 -573 -2081 -1199 -197 -231 -403 -563 -519 -835 -18 -41 -41 -93 -51
-115 -26 -59 -121 -344 -136 -410 -1 -5 -9 -37 -18 -70 -42 -164 -71 -350 -76
-495 -9 -274 -1 -723 16 -845 8 -53 34 -187 38 -194 2 -3 7 -22 10 -41 8 -49
18 -87 60 -225 320 -1074 1145 -1938 2206 -2311 117 -41 318 -99 415 -120 74
-16 126 -26 165 -30 25 -3 51 -7 59 -10 29 -9 260 -18 496 -17 346 0 464 7
640 38 17 3 77 17 135 31 58 14 112 27 120 29 38 9 212 65 278 88 186 68 392
163 549 253 95 55 293 181 303 194 3 3 21 17 40 30 174 119 453 381 609 569
20 25 48 58 62 75 158 187 370 547 493 838 95 226 197 575 222 763 3 22 8 51
10 65 22 145 24 832 3 975 -4 28 -10 68 -13 90 -8 63 -23 137 -47 227 -11 46
-22 88 -23 93 -46 202 -227 643 -338 820 -13 22 -27 47 -30 56 -22 58 -271
402 -391 540 -233 266 -604 570 -882 724 -244 134 -393 201 -615 276 -138 46
-354 105 -416 113 -16 2 -58 9 -94 14 -36 6 -87 14 -115 17 -27 4 -57 8 -65
10 -8 3 -51 7 -95 11 -44 3 -96 8 -115 10 -43 5 -497 13 -502 9z m-518 -1379
c780 -12 974 -18 1105 -32 78 -8 197 -34 227 -50 15 -8 32 -14 38 -14 15 0
112 -47 175 -84 250 -149 446 -397 489 -621 23 -120 29 -197 29 -340 1 -404
-65 -582 -302 -815 -107 -106 -213 -179 -376 -260 -60 -30 -112 -55 -114 -57
-6 -3 69 -136 252 -448 94 -159 175 -299 181 -310 6 -11 106 -177 221 -370
116 -192 212 -354 214 -360 2 -5 16 -28 31 -50 45 -66 180 -294 180 -304 0
-19 -76 -24 -313 -17 -204 5 -243 8 -259 22 -10 10 -18 20 -18 24 0 4 -78 142
-173 306 -96 165 -190 328 -211 364 -20 36 -41 72 -46 80 -19 31 -104 176
-300 515 -111 193 -208 356 -215 363 -9 10 -56 14 -171 17 -87 2 -281 7 -430
10 l-271 7 -1 -839 c0 -461 -1 -847 -1 -858 -1 -20 -6 -21 -250 -21 l-248 1 0
2070 c0 1154 3 2072 8 2076 5 3 35 4 66 3 32 -1 249 -5 483 -8z"/>
<path d="M2647 5173 c-9 -17 -4 -1554 6 -1560 10 -6 556 -5 672 1 73 5 173 13
265 22 68 7 182 37 258 67 143 59 259 163 325 292 22 44 30 63 44 100 45 126
60 435 27 560 -40 152 -104 262 -197 336 -116 93 -240 143 -407 165 -25 3 -56
8 -70 10 -44 9 -918 16 -923 7z"/>
</g>
</svg>
